<svg width="16" height="19" viewBox="0 0 16 19" fill="none" xmlns="http://www.w3.org/2000/svg">
<path d="M10.5 0.833336H5.5V2.5H10.5V0.833336ZM7.16667 11.6667H8.83333V6.66667H7.16667V11.6667ZM13.8583 6.15834L15.0417 4.975C14.6833 4.55 14.2917 4.15 13.8667 3.8L12.6833 4.98334C11.3917 3.95 9.76667 3.33334 8 3.33334C3.85833 3.33334 0.5 6.69167 0.5 10.8333C0.5 14.975 3.85 18.3333 8 18.3333C12.15 18.3333 15.5 14.975 15.5 10.8333C15.5 9.06667 14.8833 7.44167 13.8583 6.15834ZM8 16.6667C4.775 16.6667 2.16667 14.0583 2.16667 10.8333C2.16667 7.60834 4.775 5 8 5C11.225 5 13.8333 7.60834 13.8333 10.8333C13.8333 14.0583 11.225 16.6667 8 16.6667Z" fill="#DEDEDE"/>
</svg>
